<?xml version="1.0" encoding="UTF-8"?>
<svg
  xmlns="http://www.w3.org/2000/svg"
  width="1200"
  height="1200"
  viewBox="0 0 1200 1200"
>
  <rect width="1200" height="1200" fill="#000000" />
  <g transform="translate(287 381) scale(4.5)">
    <path
      fill="#0079c1"
      d="M52.66,53.3c-1.61-.45-17.83-4.99-27.39-7.67l5.15,9.3,27.84,5.18c-3.11-3.78-5.25-6.38-5.6-6.81Z"
    />
    <path
      fill="#00afef"
      d="M72.94,21.68l11.88,31.67c4.85-.11,11.16-.11,17.63.31,4.45.29,8.47.75,11.97,1.36,2.01.35,3.89.77,5.58,1.23.56.15,1.11.32,1.64.49.17-1.57.26-3.17.26-4.79,0-24.55-19.9-44.44-44.44-44.44-8.92,0-17.23,2.63-24.19,7.16l19.69,7.02Z"
    />
    <path
      fill="#0079c1"
      d="M32.99,59.56l3.92,7.08c10.06,1.19,25.14,2.87,29.48,3.35-1.42-1.72-2.79-3.4-4.09-4.98l-29.31-5.45Z"
    />
    <path
      fill="#0079c1"
      d="M130.54,71.96c7.25-3.28-7.14-10.22-7.14-10.22-10.78-4.72-32.02-4.56-41.38-4.22l-12.24-32.63L0,0l9.57,17.28,54.3,18.84,34.94,61.16c.3-12.62,18.87-18.04,28.65-18.28,9.78-.24,8.19,4.88,8.19,4.88,10.36-4.5-5.11-11.92-5.11-11.92Z"
    />
    <path
      fill="#0079c1"
      d="M12.53,22.63l9.96,17.99,32.51,9.1,39.11,47.56c-11.67-20.42-32-55.99-33.03-57.8-2.14-.74-34.5-11.97-48.55-16.85Z"
    />
  </g>
</svg>
